<svg width="31" height="31" viewBox="0 0 31 31" fill="none" xmlns="http://www.w3.org/2000/svg">
<path d="M9.22081 0.988689C10.6455 0.489173 12.2113 1.16285 12.7174 2.49273C13.1048 3.51091 12.7581 4.61769 11.9363 5.30529L12.3804 6.51626L13.0869 7.33156C13.2482 7.51815 13.4928 7.60735 13.738 7.57723C14.3991 7.49588 15.056 7.49283 15.6993 7.56044C15.9173 7.58361 16.1342 7.5116 16.2907 7.35952L16.8005 6.86611L17.1764 5.77185C16.8566 5.33293 16.7483 4.75165 16.9379 4.19933C17.2597 3.26306 18.3107 2.77916 19.2454 3.16256C20.0506 3.49245 20.4887 4.38808 20.253 5.22153C20.1032 5.75239 19.7241 6.15 19.2576 6.34678L18.8415 7.55944L18.9364 8.22758C18.969 8.45726 19.1054 8.65791 19.3047 8.77818C19.9746 9.18474 20.5899 9.6817 21.1301 10.2562C21.3116 10.4496 21.5824 10.5325 21.8427 10.4801L23.1825 10.2111L24.6961 9.37167C24.7039 8.6274 25.1017 7.90786 25.8019 7.51947C26.8606 6.93263 28.2014 7.32701 28.7655 8.40237C29.2748 9.3725 28.9551 10.592 28.0327 11.1892C27.3124 11.6547 26.4335 11.6377 25.7551 11.2402L24.2325 12.084L23.3823 12.9871C23.1541 13.2294 23.0728 13.572 23.1599 13.8928C23.1604 13.8947 23.1607 13.896 23.1612 13.8979C23.3102 14.4507 23.4006 15.0063 23.438 15.557C23.4597 15.8851 23.6454 16.1803 23.9362 16.3371L25.0459 16.9353L27.2454 17.35C27.6331 17.0124 28.1672 16.8491 28.713 16.9515C29.6915 17.1363 30.3215 18.1048 30.0708 19.0797C29.8551 19.9145 29.0325 20.4703 28.1723 20.3609C27.5857 20.2863 27.1121 19.9338 26.8578 19.4598L24.6441 19.0427L23.2787 19.2089C23.027 19.24 22.8072 19.3975 22.7046 19.628C22.296 20.5379 21.7323 21.3748 21.0363 22.0973C20.8634 22.2768 20.7985 22.5338 20.8613 22.7744L21.2006 24.0843L22.0384 25.3942C22.9599 25.2563 23.9188 25.6536 24.4508 26.4856C25.1659 27.6034 24.8415 29.0834 23.7285 29.8046C22.6161 30.5257 21.1023 30.2119 20.3732 29.1081C19.8627 28.3353 19.8571 27.382 20.2709 26.6257L19.3815 25.2354L18.288 24.3384C18.1261 24.2048 17.9054 24.1695 17.7078 24.2397C17.4885 24.3178 17.2649 24.3876 17.0362 24.4485C15.7935 24.7796 14.5406 24.8223 13.3489 24.6198C13.1742 24.5905 12.9955 24.6402 12.8619 24.7557L12.2751 25.2642L11.8386 26.336C12.1339 26.7923 12.2093 27.3783 11.9894 27.919C11.6156 28.8366 10.5392 29.2616 9.62758 28.8274C8.84253 28.4535 8.45478 27.535 8.73655 26.7157C8.91598 26.1939 9.31582 25.8178 9.79284 25.6473L10.2763 24.4594L10.1865 23.4161C9.31465 22.8717 8.53878 22.1731 7.90435 21.3474L6.4132 21.4942L5.01752 22.1823C5.02661 23.1158 4.54482 24.0039 3.69918 24.4338C2.50426 25.0407 1.03648 24.5034 0.421174 23.2331C-0.193959 21.9634 0.275207 20.4421 1.47012 19.8352C2.36433 19.3809 3.41073 19.5673 4.13879 20.2224L5.45504 19.573L6.36849 18.5962C6.42819 18.5323 6.45029 18.4424 6.42764 18.3584L6.4273 18.3571C6.00513 16.7902 6.04822 15.2063 6.47175 13.7506C6.49449 13.6707 6.4774 13.5846 6.42352 13.521L5.63546 12.5826L3.93758 11.6942C3.46992 11.8994 2.9155 11.8988 2.42793 11.6434C1.54711 11.182 1.22972 10.0748 1.75476 9.21569C2.2157 8.46241 3.19747 8.17642 3.99469 8.5626C4.51073 8.81243 4.84362 9.27968 4.94203 9.79656L6.63991 10.6849L7.84844 10.7983C7.93234 10.8064 8.01406 10.7711 8.06737 10.7061C8.61547 10.0312 9.26797 9.43541 10.0092 8.9467C10.2126 8.81192 10.339 8.58863 10.3422 8.34534L10.3547 7.25177L9.88104 5.96133C8.85409 5.88759 7.92512 5.26768 7.55697 4.30058C7.0509 2.97071 7.79593 1.48757 9.22081 0.988689Z" fill="#EC5863"/>
</svg>
